<svg width="362" height="319" viewBox="0 0 362 319" fill="none" xmlns="http://www.w3.org/2000/svg">
<path d="M200.867 20.0399V0.359863H203.837L207.647 10.9199L209.057 14.9399H209.177L210.557 10.9199L214.337 0.359863H217.277V20.0399H214.907V9.20986C214.907 7.46986 215.117 5.12986 215.237 3.38986H215.117L213.557 7.76986L209.777 18.0599H208.337L204.557 7.76986L202.997 3.38986H202.877C202.997 5.12986 203.177 7.46986 203.177 9.20986V20.0399H200.867Z" fill="#5B5B5B"/>
<path d="M186.883 20.4C181.933 20.4 178.453 16.44 178.453 10.11C178.453 3.81 181.933 0 186.883 0C191.803 0 195.283 3.84 195.283 10.11C195.283 16.44 191.803 20.4 186.883 20.4ZM186.883 18.21C190.393 18.21 192.703 15.03 192.703 10.11C192.703 5.22 190.393 2.19 186.883 2.19C183.343 2.19 181.033 5.22 181.033 10.11C181.033 15.03 183.343 18.21 186.883 18.21Z" fill="#5B5B5B"/>
<path d="M163.329 2.36986V9.68986H166.629C169.689 9.68986 171.369 8.42986 171.369 5.87986C171.369 3.29986 169.689 2.36986 166.629 2.36986H163.329ZM174.459 20.0399H171.609L166.869 11.7299H163.329V20.0399H160.809V0.359863H166.989C170.979 0.359863 173.859 1.79986 173.859 5.87986C173.859 8.93986 172.119 10.7699 169.449 11.4599L174.459 20.0399Z" fill="#5B5B5B"/>
<path d="M144.629 20.0399V0.359863H155.999V2.45986H147.149V9.11986H154.649V11.2199H147.149V20.0399H144.629Z" fill="#5B5B5B"/>
<path d="M189.68 189.834C184.73 189.834 181.25 185.874 181.25 179.544C181.25 173.244 184.73 169.434 189.68 169.434C194.6 169.434 198.08 173.274 198.08 179.544C198.08 185.874 194.6 189.834 189.68 189.834ZM189.68 187.644C193.19 187.644 195.5 184.464 195.5 179.544C195.5 174.654 193.19 171.624 189.68 171.624C186.14 171.624 183.83 174.654 183.83 179.544C183.83 184.464 186.14 187.644 189.68 187.644Z" fill="#5B5B5B"/>
<path d="M169.798 189.474V171.894H163.828V169.794H178.258V171.894H172.288V189.474H169.798Z" fill="#5B5B5B"/>
<rect y="209.834" width="361.902" height="109.034" fill="#F493FF"/>
<path d="M297.676 298.976L311.404 230.336H346.972L346.348 233.04H313.9L308.284 261.12H335.74L335.116 263.824H307.868L301.212 296.272H334.7L334.076 298.976H297.676Z" fill="#383838"/>
<path d="M262.09 298.976L275.194 233.248H253.77L254.394 230.336H300.362L299.738 233.248H278.314L265.21 298.976H262.09Z" fill="#383838"/>
<path d="M225.922 298.976L239.65 230.336H242.77L229.042 298.976H225.922Z" fill="#383838"/>
<path d="M172.422 298.976L186.15 230.336H203.622C216.102 230.336 223.59 235.12 223.59 245.936C223.59 260.912 212.566 268.4 194.886 268.4H181.574L175.542 298.976H172.422ZM182.198 265.696H194.262C211.526 265.696 220.47 259.04 220.47 246.144C220.47 236.784 214.022 233.04 201.75 233.04H188.646L182.198 265.696Z" fill="#383838"/>
<path d="M120.391 288.784L122.887 287.12C127.255 293.776 133.495 297.52 142.439 297.52C152.839 297.52 160.951 290.864 160.951 280.672C160.951 274.432 157.415 270.272 152.007 267.152L142.855 261.744C137.239 258.416 132.039 253.632 132.039 246.352C132.039 237.2 139.735 229.088 151.175 229.088C159.495 229.088 165.943 233.248 169.479 238.24L167.191 240.112C163.655 235.536 158.039 231.792 150.551 231.792C141.191 231.792 135.159 239.072 135.159 245.936C135.159 252.592 139.527 256.336 144.311 259.04L153.255 264.24C159.703 267.984 164.071 272.768 164.071 280.256C164.071 292.32 154.503 300.224 142.023 300.224C132.247 300.224 124.967 296.064 120.391 288.784Z" fill="#383838"/>
<path d="M73.3438 298.976L87.0718 230.336H122.64L122.016 233.04H89.5678L83.9517 261.12H111.408L110.784 263.824H83.5357L76.8797 296.272H110.368L109.744 298.976H73.3438Z" fill="#383838"/>
<path d="M14.8711 298.976L28.5991 230.336H39.4151C58.3431 230.336 67.4951 241.152 67.4951 256.96C67.4951 280.256 55.0151 298.976 30.8871 298.976H14.8711ZM18.4071 296.272H31.0951C52.5191 296.272 64.3751 277.968 64.3751 257.168C64.3751 243.024 56.2631 233.04 39.2071 233.04H31.0951L18.4071 296.272Z" fill="#383838"/>
<rect x="43.9219" y="40.3999" width="274.059" height="109.034" fill="#FFAA4A"/>
<path d="M244.207 77.0061L248.391 60.3735H302.88L300.737 77.0061H298.288L299.309 62.6184H276.554L270.023 97.5162C269.139 102.346 268.255 107.21 267.37 112.108C266.486 117.006 265.67 121.904 264.921 126.802L276.554 127.414L276.146 129.455H250.431L250.84 127.414L261.554 126.7L268.084 92.3121C269.037 87.3462 269.921 82.4142 270.738 77.5163C271.622 72.5503 272.438 67.5844 273.186 62.6184H251.044L246.656 77.0061H244.207Z" fill="#383838"/>
<path d="M177.035 129.455L177.443 127.414L185.811 126.802L220.198 60.3735H222.239L231.423 126.904L241.831 127.414L241.423 129.455H216.117L216.525 127.414L227.953 126.802L224.994 104.251H200.096L188.566 126.802L197.647 127.414L197.239 129.455H177.035ZM201.117 102.21H224.688L219.892 65.3735L201.117 102.21Z" fill="#383838"/>
<path d="M151.11 130.985C145.804 130.985 141.314 129.761 137.641 127.312C134.036 124.863 131.314 121.53 129.478 117.312C127.641 113.026 126.723 108.264 126.723 103.026C126.723 96.8358 127.641 91.0535 129.478 85.6794C131.314 80.3052 133.831 75.6114 137.029 71.5978C140.226 67.5842 143.899 64.455 148.049 62.2101C152.267 59.9652 156.757 58.8428 161.518 58.8428C167.097 58.8428 171.688 60.0673 175.294 62.5162C178.899 64.9652 181.552 68.2985 183.253 72.5162C185.022 76.7338 185.906 81.4957 185.906 86.8018C185.906 93.1283 185.022 98.9786 183.253 104.353C181.484 109.727 179.001 114.421 175.804 118.434C172.675 122.38 169.001 125.475 164.784 127.72C160.566 129.897 156.008 130.985 151.11 130.985ZM151.518 128.74C155.804 128.74 159.818 127.72 163.559 125.679C167.369 123.57 170.668 120.679 173.457 117.006C176.314 113.264 178.525 108.945 180.09 104.047C181.722 99.0807 182.539 93.7746 182.539 88.1283C182.539 82.7542 181.79 78.0604 180.294 74.0468C178.797 69.9652 176.484 66.8019 173.355 64.557C170.226 62.2441 166.144 61.0877 161.11 61.0877C156.688 61.0877 152.573 62.2101 148.763 64.455C145.022 66.6999 141.723 69.7611 138.865 73.6386C136.076 77.4481 133.899 81.8018 132.335 86.6998C130.77 91.5297 129.988 96.5637 129.988 101.802C129.988 106.904 130.736 111.496 132.233 115.577C133.797 119.591 136.178 122.788 139.376 125.169C142.573 127.55 146.621 128.74 151.518 128.74Z" fill="#383838"/>
<path d="M59.0859 101.087C59.0859 94.6929 60.0383 88.9106 61.9431 83.7406C63.8478 78.5025 66.5009 74.0468 69.9022 70.3733C73.3716 66.6318 77.3852 63.7747 81.943 61.8019C86.5688 59.8292 91.5348 58.8428 96.8408 58.8428C101.671 58.8428 105.752 59.353 109.086 60.3734C112.419 61.3938 115.48 62.8904 118.269 64.8632L116.024 79.0467H113.575L114.392 65.6795C112.079 64.0468 109.528 62.8904 106.739 62.2101C104.018 61.4618 100.684 61.0877 96.7388 61.0877C89.9361 61.0877 83.9498 62.7543 78.7797 66.0876C73.6097 69.4209 69.5621 74.1148 66.6369 80.1692C63.7798 86.1556 62.3512 93.1283 62.3512 101.087C62.3512 106.938 63.5077 111.938 65.8206 116.087C68.2015 120.169 71.4328 123.298 75.5144 125.475C79.6641 127.652 84.3239 128.74 89.4939 128.74C92.8273 128.74 95.7524 128.366 98.2694 127.618C100.786 126.87 103.405 125.747 106.127 124.251L106.841 119.557C107.385 116.223 107.963 112.89 108.575 109.557C109.188 106.155 109.8 102.788 110.412 99.4548L98.2694 98.8426L98.6776 96.8018H122.147L121.739 98.8426L113.677 99.4548L108.882 125.577C105.412 127.414 102.249 128.774 99.3918 129.659C96.5347 130.543 93.2014 130.985 89.3919 130.985C83.4055 130.985 78.1335 129.795 73.5757 127.414C69.0179 125.033 65.4464 121.598 62.8614 117.108C60.3444 112.618 59.0859 107.278 59.0859 101.087Z" fill="#383838"/>
</svg>
