<svg width="806" height="110" viewBox="0 0 806 110" fill="none" xmlns="http://www.w3.org/2000/svg">
<path d="M56.2383 20.0399V0.359863H59.2083L63.0183 10.9199L64.4283 14.9399H64.5483L65.9283 10.9199L69.7083 0.359863H72.6483V20.0399H70.2783V9.20986C70.2783 7.46986 70.4883 5.12986 70.6083 3.38986H70.4883L68.9283 7.76986L65.1483 18.0599H63.7083L59.9283 7.76986L58.3683 3.38986H58.2483C58.3683 5.12986 58.5483 7.46986 58.5483 9.20986V20.0399H56.2383Z" fill="#5B5B5B"/>
<path d="M42.2542 20.4C37.3042 20.4 33.8242 16.44 33.8242 10.11C33.8242 3.81 37.3042 0 42.2542 0C47.1742 0 50.6542 3.84 50.6542 10.11C50.6542 16.44 47.1742 20.4 42.2542 20.4ZM42.2542 18.21C45.7642 18.21 48.0742 15.03 48.0742 10.11C48.0742 5.22 45.7642 2.19 42.2542 2.19C38.7142 2.19 36.4042 5.22 36.4042 10.11C36.4042 15.03 38.7142 18.21 42.2542 18.21Z" fill="#5B5B5B"/>
<path d="M18.6997 2.36986V9.68986H21.9997C25.0597 9.68986 26.7397 8.42986 26.7397 5.87986C26.7397 3.29986 25.0597 2.36986 21.9997 2.36986H18.6997ZM29.8297 20.0399H26.9797L22.2397 11.7299H18.6997V20.0399H16.1797V0.359863H22.3597C26.3497 0.359863 29.2297 1.79986 29.2297 5.87986C29.2297 8.93986 27.4897 10.7699 24.8197 11.4599L29.8297 20.0399Z" fill="#5B5B5B"/>
<path d="M0 20.0399V0.359863H11.37V2.45986H2.52V9.11986H10.02V11.2199H2.52V20.0399H0Z" fill="#5B5B5B"/>
<path d="M414.047 20.4C409.097 20.4 405.617 16.44 405.617 10.11C405.617 3.81 409.097 0 414.047 0C418.967 0 422.447 3.84 422.447 10.11C422.447 16.44 418.967 20.4 414.047 20.4ZM414.047 18.21C417.557 18.21 419.867 15.03 419.867 10.11C419.867 5.22 417.557 2.19 414.047 2.19C410.507 2.19 408.197 5.22 408.197 10.11C408.197 15.03 410.507 18.21 414.047 18.21Z" fill="#5B5B5B"/>
<path d="M394.165 20.0399V2.45986H388.195V0.359863H402.625V2.45986H396.655V20.0399H394.165Z" fill="#5B5B5B"/>
<rect x="443.973" y="0.53125" width="361.902" height="109.034" fill="#F493FF"/>
<path d="M741.648 89.6737L755.376 21.0337H790.944L790.32 23.7377H757.872L752.256 51.8177H779.712L779.088 54.5217H751.84L745.184 86.9697H778.672L778.048 89.6737H741.648Z" fill="#383838"/>
<path d="M706.062 89.6737L719.166 23.9457H697.742L698.366 21.0337H744.334L743.71 23.9457H722.286L709.182 89.6737H706.062Z" fill="#383838"/>
<path d="M669.895 89.6737L683.623 21.0337H686.743L673.015 89.6737H669.895Z" fill="#383838"/>
<path d="M616.395 89.6737L630.123 21.0337H647.595C660.075 21.0337 667.563 25.8177 667.563 36.6337C667.563 51.6097 656.539 59.0977 638.859 59.0977H625.547L619.515 89.6737H616.395ZM626.171 56.3937H638.235C655.499 56.3937 664.443 49.7377 664.443 36.8417C664.443 27.4817 657.995 23.7377 645.723 23.7377H632.619L626.171 56.3937Z" fill="#383838"/>
<path d="M564.363 79.4816L566.859 77.8176C571.227 84.4736 577.467 88.2177 586.411 88.2177C596.811 88.2177 604.923 81.5616 604.923 71.3696C604.923 65.1296 601.387 60.9696 595.979 57.8496L586.827 52.4416C581.211 49.1136 576.011 44.3296 576.011 37.0496C576.011 27.8976 583.707 19.7856 595.147 19.7856C603.467 19.7856 609.915 23.9456 613.451 28.9376L611.163 30.8096C607.627 26.2336 602.011 22.4896 594.523 22.4896C585.163 22.4896 579.131 29.7696 579.131 36.6336C579.131 43.2896 583.499 47.0336 588.283 49.7377L597.227 54.9376C603.675 58.6817 608.043 63.4656 608.043 70.9536C608.043 83.0176 598.475 90.9216 585.995 90.9216C576.219 90.9216 568.939 86.7616 564.363 79.4816Z" fill="#383838"/>
<path d="M517.316 89.6737L531.044 21.0337H566.612L565.988 23.7377H533.54L527.924 51.8177H555.38L554.756 54.5217H527.508L520.852 86.9697H554.34L553.716 89.6737H517.316Z" fill="#383838"/>
<path d="M458.844 89.6737L472.572 21.0337H483.388C502.316 21.0337 511.468 31.8497 511.468 47.6577C511.468 70.9537 498.988 89.6737 474.86 89.6737H458.844ZM462.38 86.9697H475.068C496.492 86.9697 508.348 68.6657 508.348 47.8657C508.348 33.7217 500.236 23.7377 483.18 23.7377H475.068L462.38 86.9697Z" fill="#383838"/>
<rect x="93.3359" y="0.53125" width="274.059" height="109.034" fill="#FFAA4A"/>
<path d="M293.621 37.1375L297.805 20.5049H352.294L350.151 37.1375H347.702L348.723 22.7498H325.968L319.437 57.6475C318.553 62.4775 317.669 67.3414 316.784 72.2393C315.9 77.1372 315.084 82.0352 314.335 86.9331L325.968 87.5454L325.56 89.5862H299.846L300.254 87.5454L310.968 86.8311L317.499 52.4435C318.451 47.4775 319.335 42.5456 320.152 37.6477C321.036 32.6817 321.852 27.7157 322.601 22.7498H300.458L296.07 37.1375H293.621Z" fill="#383838"/>
<path d="M226.449 89.5862L226.857 87.5454L235.225 86.9331L269.612 20.5049H271.653L280.837 87.0351L291.245 87.5454L290.837 89.5862H265.531L265.939 87.5454L277.367 86.9331L274.408 64.3822H249.51L237.98 86.9331L247.061 87.5454L246.653 89.5862H226.449ZM250.531 62.3414H274.102L269.306 25.5049L250.531 62.3414Z" fill="#383838"/>
<path d="M200.524 91.1166C195.218 91.1166 190.728 89.8921 187.055 87.4432C183.45 84.9942 180.729 81.6609 178.892 77.4432C177.055 73.1575 176.137 68.3956 176.137 63.1576C176.137 56.9671 177.055 51.1848 178.892 45.8107C180.729 40.4366 183.246 35.7427 186.443 31.7292C189.64 27.7156 193.313 24.5863 197.463 22.3414C201.681 20.0966 206.171 18.9741 210.932 18.9741C216.511 18.9741 221.102 20.1986 224.708 22.6476C228.313 25.0965 230.966 28.4299 232.667 32.6475C234.436 36.8652 235.32 41.6271 235.32 46.9332C235.32 53.2597 234.436 59.11 232.667 64.4841C230.898 69.8582 228.415 74.5521 225.218 78.5657C222.089 82.5112 218.415 85.6064 214.198 87.8513C209.98 90.0282 205.422 91.1166 200.524 91.1166ZM200.933 88.8717C205.218 88.8717 209.232 87.8513 212.973 85.8105C216.783 83.7017 220.082 80.8105 222.871 77.1371C225.728 73.3956 227.939 69.0759 229.504 64.178C231.136 59.212 231.953 53.9059 231.953 48.2597C231.953 42.8856 231.204 38.1917 229.708 34.1781C228.211 30.0965 225.898 26.9333 222.769 24.6884C219.64 22.3755 215.558 21.219 210.524 21.219C206.103 21.219 201.987 22.3414 198.177 24.5863C194.436 26.8312 191.137 29.8924 188.28 33.77C185.49 37.5795 183.314 41.9332 181.749 46.8311C180.184 51.661 179.402 56.695 179.402 61.9331C179.402 67.0351 180.15 71.6269 181.647 75.7085C183.212 79.7221 185.592 82.9194 188.79 85.3003C191.987 87.6812 196.035 88.8717 200.933 88.8717Z" fill="#383838"/>
<path d="M108.5 61.2188C108.5 54.8243 109.452 49.042 111.357 43.872C113.262 38.6339 115.915 34.1781 119.316 30.5047C122.786 26.7632 126.799 23.9061 131.357 21.9333C135.983 19.9605 140.949 18.9741 146.255 18.9741C151.085 18.9741 155.166 19.4843 158.5 20.5047C161.833 21.5251 164.894 23.0217 167.683 24.9945L165.438 39.1781H162.99L163.806 25.8108C161.493 24.1782 158.942 23.0217 156.153 22.3414C153.432 21.5932 150.098 21.219 146.153 21.219C139.35 21.219 133.364 22.8857 128.194 26.219C123.024 29.5523 118.976 34.2461 116.051 40.3005C113.194 46.2869 111.765 53.2597 111.765 61.2188C111.765 67.0691 112.922 72.0691 115.235 76.2187C117.616 80.3003 120.847 83.4296 124.928 85.6064C129.078 87.7833 133.738 88.8717 138.908 88.8717C142.241 88.8717 145.166 88.4976 147.683 87.7493C150.2 87.001 152.819 85.8785 155.541 84.3819L156.255 79.6881C156.799 76.3548 157.377 73.0215 157.99 69.6881C158.602 66.2868 159.214 62.9195 159.826 59.5862L147.683 58.9739L148.092 56.9331H171.561L171.153 58.9739L163.092 59.5862L158.296 85.7085C154.826 87.5452 151.663 88.9057 148.806 89.7901C145.949 90.6744 142.615 91.1166 138.806 91.1166C132.82 91.1166 127.548 89.9261 122.99 87.5452C118.432 85.1643 114.861 81.7289 112.275 77.2391C109.758 72.7493 108.5 67.4092 108.5 61.2188Z" fill="#383838"/>
</svg>
